<?xml version="1.0" encoding="utf-8"?>
<!-- Generator: Adobe Illustrator 26.0.0, SVG Export Plug-In . SVG Version: 6.00 Build 0)  -->
<svg version="1.1" id="Bold" xmlns="http://www.w3.org/2000/svg" xmlns:xlink="http://www.w3.org/1999/xlink" x="0px" y="0px"
	 viewBox="0 0 32 32" style="enable-background:new 0 0 32 32;" xml:space="preserve">
<style type="text/css">
	.st0{fill:#8B008B;}
</style>
<g>
	<path class="st0" d="M32,32L32,32L32,32l0-11.7c0-5.7-1.2-10.2-8-10.2c-3.2,0-5.4,1.8-6.3,3.4h-0.1v-2.9h-6.4V32h6.6V21.4
		c0-2.8,0.5-5.5,4-5.5c3.4,0,3.5,3.2,3.5,5.7V32H32z"/>
	<path class="st0" d="M0.5,10.6h6.6V32H0.5V10.6z"/>
	<path class="st0" d="M3.8,0C1.7,0,0,1.7,0,3.8s1.7,3.9,3.8,3.9S7.7,6,7.7,3.8C7.7,1.7,6,0,3.8,0z"/>
</g>
</svg>
